# xmcd CD database file
#
# Track frame offsets:
#	150
#	15844
#	29555
#	43062
#	55325
#	69120
#	84686
#	100458
#	116589
#	130224
#	148584
#	165218
#	179811
#	197327
#	213652
#	230543
#	243868
#
# Disc length: 3486 seconds
#
# Revision: 0
# Processed by: cddbd v1.5.2PL0 Copyright (c) Steve Scherf et al.
# Submitted via: CDex 1.51
#
DISCID=e80d9c11
DTITLE=Fernando and Sorocaba - Vendaval
DYEAR=2009
DGENRE=Country
TTITLE0=Paga Pau
TTITLE1=Da Cor do Pecado
TTITLE2=Força de Um Furacão
TTITLE3=Chevetão
TTITLE4=Vendaval
TTITLE5=Vítimas do Amor
TTITLE6=Que Raiva Que Dá
TTITLE7=Um Quarto
TTITLE8=Estrela Solitária
TTITLE9=Consequência de Te Amar
TTITLE10=Máquina do Tempo
TTITLE11=O Mundo Avisou
TTITLE12=Brilho no Olhar
TTITLE13=Você É Mais
TTITLE14=100% Você
TTITLE15=Livre Pro Amor
TTITLE16=Bala de Prata Acústico
EXTD=YEAR: 2009
EXTT0=
EXTT1=
EXTT2=
EXTT3=
EXTT4=
EXTT5=
EXTT6=
EXTT7=
EXTT8=
EXTT9=
EXTT10=
EXTT11=
EXTT12=
EXTT13=
EXTT14=
EXTT15=
EXTT16=
PLAYORDER=
